<?xml version="1.0" encoding="utf-8"?>
<!-- Generator: Adobe Illustrator 27.4.0, SVG Export Plug-In . SVG Version: 6.00 Build 0)  -->
<svg version="1.1" id="Layer_1" xmlns="http://www.w3.org/2000/svg" xmlns:xlink="http://www.w3.org/1999/xlink" x="0px" y="0px"
	 viewBox="0 0 40 40" style="enable-background:new 0 0 40 40;" xml:space="preserve">
<style type="text/css">
	.st0{fill:#4B465A;}
</style>
<path class="st0" d="M9.5,29c1.6-1.2,3.3-2.1,5-2.7c1.7-0.6,3.6-1,5.5-1c1.9,0,3.8,0.3,5.5,1c1.7,0.6,3.4,1.5,5,2.7
	c1.1-1.4,1.9-2.8,2.5-4.3c0.5-1.5,0.8-3,0.8-4.7c0-3.9-1.3-7.2-4-9.8c-2.7-2.7-5.9-4-9.8-4c-3.9,0-7.2,1.3-9.8,4
	c-2.7,2.7-4,5.9-4,9.8c0,1.7,0.3,3.2,0.8,4.7C7.5,26.1,8.3,27.6,9.5,29z M20,21.5c-1.6,0-3-0.6-4.1-1.7c-1.1-1.1-1.7-2.5-1.7-4.1
	s0.6-3,1.7-4.1c1.1-1.1,2.5-1.7,4.1-1.7c1.6,0,3,0.6,4.1,1.7c1.1,1.1,1.7,2.5,1.7,4.1c0,1.6-0.6,3-1.7,4.1
	C23,20.9,21.6,21.5,20,21.5z M20,36.9c-2.3,0-4.5-0.4-6.6-1.3S9.6,33.5,8,32c-1.5-1.5-2.8-3.3-3.6-5.4c-0.9-2.1-1.3-4.3-1.3-6.6
	c0-2.3,0.4-4.5,1.3-6.6S6.5,9.6,8,8c1.5-1.5,3.3-2.7,5.4-3.6S17.7,3,20,3c2.3,0,4.5,0.4,6.6,1.3S30.4,6.5,32,8
	c1.5,1.5,2.7,3.3,3.6,5.4c0.9,2.1,1.3,4.2,1.3,6.6c0,2.3-0.4,4.5-1.3,6.6c-0.9,2.1-2.1,3.9-3.6,5.4c-1.5,1.5-3.3,2.7-5.4,3.6
	C24.5,36.5,22.3,36.9,20,36.9z M20,33.8c1.5,0,2.9-0.2,4.3-0.6c1.4-0.4,2.7-1.1,4-2.1c-1.3-0.9-2.7-1.6-4-2.1
	c-1.4-0.5-2.8-0.7-4.3-0.7c-1.5,0-2.9,0.2-4.3,0.7c-1.4,0.5-2.7,1.2-4,2.1c1.3,1,2.6,1.7,4,2.1C17.1,33.6,18.5,33.8,20,33.8z
	 M20,18.6c0.8,0,1.5-0.3,2.1-0.8c0.5-0.5,0.8-1.2,0.8-2.1s-0.3-1.5-0.8-2.1c-0.5-0.5-1.2-0.8-2.1-0.8c-0.8,0-1.5,0.3-2.1,0.8
	c-0.5,0.5-0.8,1.2-0.8,2.1s0.3,1.5,0.8,2.1C18.5,18.3,19.2,18.6,20,18.6z"/>
</svg>
