<?xml version="1.0" encoding="utf-8"?>
<!-- Generator: Adobe Illustrator 27.4.0, SVG Export Plug-In . SVG Version: 6.00 Build 0)  -->
<svg version="1.1" id="Layer_1" xmlns="http://www.w3.org/2000/svg" xmlns:xlink="http://www.w3.org/1999/xlink" x="0px" y="0px"
	 viewBox="0 0 40 40" style="enable-background:new 0 0 40 40;" xml:space="preserve">
<style type="text/css">
	.st0{fill:#4B465A;}
</style>
<path class="st0" d="M27.5,33.3c0.4-0.4,0.6-0.9,0.6-1.5c0-0.6-0.2-1.1-0.6-1.5L17.2,20L27.5,9.7c0.4-0.4,0.6-0.9,0.6-1.5
	s-0.2-1.1-0.6-1.5C27.1,6.2,26.6,6,26,6s-1.1,0.2-1.5,0.6L12.4,18.7c-0.2,0.2-0.3,0.4-0.4,0.6s-0.1,0.4-0.1,0.7s0,0.5,0.1,0.7
	s0.2,0.4,0.4,0.6l12.1,12.1c0.4,0.4,0.9,0.6,1.5,0.6S27.1,33.8,27.5,33.3z"/>
</svg>
