<?xml version="1.0" encoding="utf-8"?>
<!-- Generator: Adobe Illustrator 27.4.0, SVG Export Plug-In . SVG Version: 6.00 Build 0)  -->
<svg version="1.1" id="Layer_1" xmlns="http://www.w3.org/2000/svg" xmlns:xlink="http://www.w3.org/1999/xlink" x="0px" y="0px"
	 viewBox="0 0 40 40" style="enable-background:new 0 0 40 40;" xml:space="preserve">
<style type="text/css">
	.st0{fill:#4B465A;}
</style>
<path class="st0" d="M12.5,33.3c-0.4-0.4-0.6-0.9-0.6-1.5c0-0.6,0.2-1.1,0.6-1.5L22.8,20L12.5,9.7c-0.4-0.4-0.6-0.9-0.6-1.5
	c0-0.6,0.2-1.1,0.6-1.5C12.9,6.2,13.4,6,14,6c0.6,0,1.1,0.2,1.5,0.6l12.1,12.1c0.2,0.2,0.3,0.4,0.4,0.6c0.1,0.2,0.1,0.4,0.1,0.7
	s0,0.5-0.1,0.7c-0.1,0.2-0.2,0.4-0.4,0.6L15.5,33.4C15.1,33.8,14.6,34,14,34C13.4,34,12.9,33.8,12.5,33.3z"/>
</svg>
