<?xml version="1.0" encoding="utf-8"?>
<!-- Generator: Adobe Illustrator 27.4.0, SVG Export Plug-In . SVG Version: 6.00 Build 0)  -->
<svg version="1.1" id="Layer_1" xmlns="http://www.w3.org/2000/svg" xmlns:xlink="http://www.w3.org/1999/xlink" x="0px" y="0px"
	 viewBox="0 0 40 40" style="enable-background:new 0 0 40 40;" xml:space="preserve">
<style type="text/css">
	.st0{fill:#4B465A;}
</style>
<path class="st0" d="M33.3,12.5c-0.4-0.4-0.9-0.6-1.5-0.6c-0.6,0-1.1,0.2-1.5,0.6L20,22.8L9.7,12.5c-0.4-0.4-0.9-0.6-1.5-0.6
	s-1.1,0.2-1.5,0.6C6.2,12.9,6,13.4,6,14s0.2,1.1,0.6,1.5l12.1,12.1c0.2,0.2,0.4,0.3,0.6,0.4c0.2,0.1,0.4,0.1,0.7,0.1s0.5,0,0.7-0.1
	s0.4-0.2,0.6-0.4l12.1-12.1c0.4-0.4,0.6-0.9,0.6-1.5S33.8,12.9,33.3,12.5z"/>
</svg>
