<?xml version="1.0" encoding="utf-8"?>
<!-- Generator: Adobe Illustrator 27.4.0, SVG Export Plug-In . SVG Version: 6.00 Build 0)  -->
<svg version="1.1" id="Layer_1" xmlns="http://www.w3.org/2000/svg" xmlns:xlink="http://www.w3.org/1999/xlink" x="0px" y="0px"
	 viewBox="0 0 40 40" style="enable-background:new 0 0 40 40;" xml:space="preserve">
<style type="text/css">
	.st0{fill:#4B465A;}
</style>
<path class="st0" d="M11.9,36.8c-0.9,0-1.6-0.3-2.2-0.9c-0.6-0.6-0.9-1.3-0.9-2.2c0-0.9,0.3-1.6,0.9-2.2c0.6-0.6,1.3-0.9,2.2-0.9
	c0.9,0,1.6,0.3,2.2,0.9c0.6,0.6,0.9,1.3,0.9,2.2c0,0.9-0.3,1.6-0.9,2.2C13.4,36.5,12.7,36.8,11.9,36.8z M28.5,36.8
	c-0.9,0-1.6-0.3-2.2-0.9c-0.6-0.6-0.9-1.3-0.9-2.2c0-0.9,0.3-1.6,0.9-2.2c0.6-0.6,1.3-0.9,2.2-0.9c0.9,0,1.6,0.3,2.2,0.9
	c0.6,0.6,0.9,1.3,0.9,2.2c0,0.9-0.3,1.6-0.9,2.2C30.1,36.5,29.4,36.8,28.5,36.8z M10.2,9.5l4.2,8.7h11.9L31,9.5
	C31,9.5,10.2,9.5,10.2,9.5z M8.7,6.5h24.2c0.7,0,1.3,0.3,1.7,1c0.4,0.7,0.4,1.3,0,2l-5.5,10c-0.3,0.6-0.7,1-1.2,1.3
	c-0.5,0.3-1.1,0.5-1.7,0.5H13.6l-2.1,3.9h20.2v3H11.6c-1.3,0-2.2-0.5-2.7-1.4c-0.6-0.9-0.6-1.9,0-3l2.5-4.6l-6.2-13H1.8v-3h5.3
	L8.7,6.5z M14.4,18.3h11.9H14.4z"/>
</svg>
