<?xml version="1.0" encoding="utf-8"?>
<!-- Generator: Adobe Illustrator 27.4.0, SVG Export Plug-In . SVG Version: 6.00 Build 0)  -->
<svg version="1.1" id="Layer_1" xmlns="http://www.w3.org/2000/svg" xmlns:xlink="http://www.w3.org/1999/xlink" x="0px" y="0px"
	 viewBox="0 0 40 40" style="enable-background:new 0 0 40 40;" xml:space="preserve">
<style type="text/css">
	.st0{fill:#4B465A;}
</style>
<path class="st0" d="M18.6,31.9h2.6v-2.1c1.6-0.2,2.9-0.7,3.8-1.6s1.5-2,1.5-3.6c0-1.3-0.4-2.5-1.1-3.4c-0.8-0.9-2.1-1.8-4.1-2.6
	c-1.6-0.6-2.8-1.2-3.5-1.7c-0.7-0.5-1-1.1-1-2c0-0.8,0.3-1.4,0.9-1.8c0.6-0.5,1.4-0.7,2.4-0.7c0.8,0,1.6,0.2,2.1,0.6
	c0.6,0.4,1,1,1.4,1.7l2.3-1c-0.4-1-1-1.8-1.8-2.5c-0.8-0.6-1.7-1-2.7-1.1V8.2h-2.6v2.1c-1.4,0.2-2.5,0.8-3.3,1.7
	c-0.8,0.9-1.2,1.9-1.2,3.1c0,1.4,0.4,2.5,1.2,3.3c0.8,0.8,2.1,1.6,3.8,2.2c1.8,0.7,3,1.3,3.6,1.9c0.7,0.6,1,1.3,1,2.1
	c0,0.9-0.3,1.6-1,2.1c-0.7,0.5-1.6,0.7-2.6,0.7c-1,0-1.9-0.3-2.7-0.9c-0.8-0.6-1.3-1.4-1.7-2.5l-2.5,0.9c0.5,1.3,1.2,2.4,2.1,3.2
	c0.9,0.8,1.9,1.3,3.1,1.6C18.6,29.7,18.6,31.9,18.6,31.9z M20,36.9c-2.3,0-4.5-0.4-6.6-1.3C11.4,34.7,9.6,33.5,8,32
	c-1.5-1.5-2.7-3.3-3.6-5.4c-0.9-2.1-1.3-4.3-1.3-6.6c0-2.4,0.4-4.6,1.3-6.6C5.3,11.3,6.5,9.5,8,8s3.3-2.7,5.4-3.6
	C15.5,3.5,17.7,3,20,3c2.4,0,4.6,0.4,6.6,1.3C28.7,5.3,30.5,6.5,32,8c1.5,1.5,2.7,3.3,3.6,5.4c0.9,2.1,1.3,4.3,1.3,6.6
	c0,2.3-0.4,4.5-1.3,6.6c-0.9,2.1-2.1,3.9-3.6,5.4c-1.5,1.5-3.3,2.7-5.4,3.6C24.6,36.5,22.4,36.9,20,36.9z M20,33.8
	c3.8,0,7.1-1.3,9.8-4c2.7-2.7,4-5.9,4-9.8c0-3.8-1.3-7.1-4-9.8c-2.7-2.7-5.9-4-9.8-4c-3.8,0-7.1,1.3-9.8,4c-2.7,2.7-4,5.9-4,9.8
	c0,3.8,1.3,7.1,4,9.8C12.9,32.4,16.2,33.8,20,33.8z"/>
</svg>
