<?xml version="1.0" encoding="utf-8"?>
<!-- Generator: Adobe Illustrator 27.4.0, SVG Export Plug-In . SVG Version: 6.00 Build 0)  -->
<svg version="1.1" id="Layer_1" xmlns="http://www.w3.org/2000/svg" xmlns:xlink="http://www.w3.org/1999/xlink" x="0px" y="0px"
	 viewBox="0 0 40 40" style="enable-background:new 0 0 40 40;" xml:space="preserve">
<style type="text/css">
	.st0{fill:#AA4E43;}
</style>
<path class="st0" d="M17.4,33l-2.2-2c-2.8-2.6-5.4-5.2-7.6-7.7c-2.2-2.6-3.3-5.3-3.3-8.3c0-2.5,0.8-4.6,2.5-6.3S10.6,6,13.1,6
	c1.2,0,2.4,0.2,3.6,0.7c1.2,0.5,2.2,1.3,3.2,2.4c1.1-1.1,2.2-1.9,3.3-2.4C24.3,6.2,25.5,6,26.8,6c2.5,0,4.7,0.8,6.4,2.5
	c1.7,1.7,2.5,3.8,2.5,6.3c0,3-1.1,5.8-3.3,8.3c-2.2,2.6-4.8,5.1-7.6,7.7l-2.2,2c-0.7,0.7-1.6,1-2.6,1C19,34,18.1,33.7,17.4,33z
	 M18.6,13.4c-0.6-1-1.3-1.9-2.4-2.5c-1-0.7-2.1-1-3.2-1c-1.4,0-2.6,0.5-3.6,1.4c-0.9,0.9-1.4,2.2-1.4,3.6c0,1.3,0.5,2.7,1.4,4.2
	c0.9,1.5,2,2.9,3.2,4.3c1.3,1.4,2.5,2.7,3.9,3.9c1.3,1.2,2.5,2.2,3.3,3c0.9-0.8,2-1.8,3.3-3c1.3-1.2,2.7-2.5,3.9-3.9
	c1.3-1.4,2.4-2.8,3.3-4.2c0.9-1.4,1.4-2.8,1.4-4.2c0-1.5-0.5-2.7-1.4-3.6c-1-0.9-2.2-1.4-3.6-1.4c-1.1,0-2.2,0.3-3.2,1
	c-1,0.7-1.8,1.5-2.4,2.6c-0.2,0.3-0.3,0.5-0.6,0.6c-0.2,0.1-0.5,0.2-0.8,0.2s-0.5-0.1-0.7-0.2C19,13.9,18.8,13.7,18.6,13.4z"/>
</svg>
