<?xml version="1.0" encoding="utf-8"?>
<!-- Generator: Adobe Illustrator 27.4.0, SVG Export Plug-In . SVG Version: 6.00 Build 0)  -->
<svg version="1.1" id="Layer_1" xmlns="http://www.w3.org/2000/svg" xmlns:xlink="http://www.w3.org/1999/xlink" x="0px" y="0px"
	 viewBox="0 0 48 48" style="enable-background:new 0 0 48 48;" xml:space="preserve">
<style type="text/css">
	.st0{fill:#AA4E43;}
</style>
<path class="st0" d="M22,40c-0.6,0-1-0.2-1.4-0.6C20.2,39,20,38.6,20,38V26L8.1,10.8c-0.5-0.6-0.5-1.2-0.2-1.8C8.2,8.3,8.7,8,9.4,8
	h29.2c0.7,0,1.2,0.3,1.5,0.9c0.3,0.6,0.3,1.2-0.2,1.8L28,26v12c0,0.6-0.2,1-0.6,1.4C27,39.8,26.6,40,26,40H22z"/>
</svg>
