<?xml version="1.0" encoding="utf-8"?>
<!-- Generator: Adobe Illustrator 27.4.0, SVG Export Plug-In . SVG Version: 6.00 Build 0)  -->
<svg version="1.1" id="Layer_1" xmlns="http://www.w3.org/2000/svg" xmlns:xlink="http://www.w3.org/1999/xlink" x="0px" y="0px"
	 viewBox="0 0 40 40" style="enable-background:new 0 0 40 40;" xml:space="preserve">
<style type="text/css">
	.st0{fill:#4B465A;}
</style>
<path class="st0" d="M33,35.3L22.1,24.4c-0.8,0.7-1.8,1.2-2.9,1.6c-1.1,0.4-2.3,0.6-3.5,0.6c-3.1,0-5.7-1.1-7.8-3.2
	c-2.1-2.1-3.2-4.7-3.2-7.7c0-3,1.1-5.6,3.2-7.7c2.1-2.1,4.7-3.2,7.7-3.2c3,0,5.6,1.1,7.7,3.2c2.1,2.1,3.2,4.7,3.2,7.7
	c0,1.2-0.2,2.4-0.6,3.5c-0.4,1.1-0.9,2.1-1.6,3L35.3,33L33,35.3z M15.7,23.4c2.2,0,4-0.8,5.5-2.3c1.5-1.5,2.2-3.3,2.2-5.5
	c0-2.1-0.8-4-2.3-5.5c-1.5-1.5-3.3-2.3-5.5-2.3c-2.2,0-4,0.8-5.5,2.3c-1.5,1.5-2.3,3.3-2.3,5.5c0,2.1,0.8,4,2.3,5.5
	C11.7,22.7,13.5,23.4,15.7,23.4z"/>
</svg>
