<?xml version="1.0" encoding="utf-8"?>
<!-- Generator: Adobe Illustrator 27.4.0, SVG Export Plug-In . SVG Version: 6.00 Build 0)  -->
<svg version="1.1" id="Layer_1" xmlns="http://www.w3.org/2000/svg" xmlns:xlink="http://www.w3.org/1999/xlink" x="0px" y="0px"
	 viewBox="0 0 40 40" style="enable-background:new 0 0 40 40;" xml:space="preserve">
<style type="text/css">
	.st0{fill:#4B465A;}
</style>
<path class="st0" d="M19.8,37.7l8.1-21.3h3.6l8.2,21.3h-3.8l-1.8-5.6h-8.5l-2.1,5.6H19.8z M26.5,29.1h6.3l-3.1-8.7h-0.1L26.5,29.1z
	 M5.8,32.4L3.4,30l9-9c-1.1-1.3-2.1-2.6-3-3.9s-1.6-2.7-2.2-4.1H11c0.5,1,1.1,1.9,1.7,2.8c0.6,0.9,1.3,1.8,2.1,2.7
	c1.3-1.4,2.4-2.9,3.3-4.3c0.9-1.5,1.6-3.1,2.3-4.7H0.5V5.8h12.4V2.3h3.6v3.5h12.4v3.6h-5c-0.7,2-1.5,4.1-2.6,6c-1.1,2-2.4,3.8-4,5.6
	l4.3,4.4L20.3,29l-5.7-5.4L5.8,32.4z"/>
</svg>
